<svg width="40" height="40" viewBox="0 0 40 40" fill="none" xmlns="http://www.w3.org/2000/svg">
<g clip-path="url(#clip0_543_7280)">
<path d="M36.123 0H3.87695C1.73922 0 0 1.73922 0 3.87695V36.123C0 38.2608 1.73922 40 3.87695 40H36.123C38.2608 40 40 38.2608 40 36.123V3.87695C40 1.73922 38.2608 0 36.123 0ZM2.34375 36.123V3.87695C2.34375 3.03156 3.03156 2.34375 3.87695 2.34375H22.002C22.8473 2.34375 23.5352 3.03156 23.5352 3.87695V36.123C23.5352 36.9684 22.8473 37.6562 22.002 37.6562H3.87695C3.03156 37.6562 2.34375 36.9684 2.34375 36.123ZM25.5622 37.6562C25.7656 37.1857 25.8789 36.6674 25.8789 36.123V3.87695C25.8789 3.33258 25.7656 2.8143 25.5622 2.34375H26.709C27.5544 2.34375 28.2422 3.03156 28.2422 3.87695V36.123C28.2422 36.9684 27.5544 37.6562 26.709 37.6562H25.5622ZM30.2692 37.6562C30.4727 37.1857 30.5859 36.6674 30.5859 36.123V3.87695C30.5859 3.33258 30.4727 2.8143 30.2692 2.34375H31.416C32.2614 2.34375 32.9492 3.03156 32.9492 3.87695V36.123C32.9492 36.9684 32.2614 37.6562 31.416 37.6562H30.2692ZM37.6562 36.123C37.6562 36.9684 36.9684 37.6562 36.123 37.6562H34.9762C35.1797 37.1857 35.293 36.6674 35.293 36.123V3.87695C35.293 3.33258 35.1797 2.8143 34.9762 2.34375H36.123C36.9684 2.34375 37.6562 3.03156 37.6562 3.87695V36.123Z" fill="#01485A"/>
<path d="M11.8277 12.5688L9.47418 19.6294C9.39402 19.8699 9.39402 20.13 9.47418 20.3705L11.8277 27.4311C11.9872 27.9096 12.435 28.2323 12.9394 28.2323C13.4438 28.2323 13.8916 27.9096 14.0511 27.4311L16.4046 20.3705C16.4848 20.13 16.4848 19.8699 16.4046 19.6294L14.0511 12.5688C13.8916 12.0903 13.4438 11.7676 12.9394 11.7676C12.435 11.7676 11.9872 12.0903 11.8277 12.5688ZM14.0576 20L12.9394 23.3548L11.8212 20L12.9394 16.6452L14.0576 20Z" fill="#01485A"/>
<path d="M20 9.52258C20.6472 9.52258 21.1719 8.99789 21.1719 8.3507V5.87891C21.1719 5.23172 20.6472 4.70703 20 4.70703C19.3528 4.70703 18.8281 5.23172 18.8281 5.87891V8.3507C18.8281 8.99789 19.3528 9.52258 20 9.52258Z" fill="#01485A"/>
<path d="M5.87891 35.293C6.52609 35.293 7.05078 34.7683 7.05078 34.1211V31.6493C7.05078 31.0021 6.52609 30.4774 5.87891 30.4774C5.23172 30.4774 4.70703 31.0021 4.70703 31.6493V34.1211C4.70703 34.7683 5.23172 35.293 5.87891 35.293Z" fill="#01485A"/>
</g>
<defs>
<clipPath id="clip0_543_7280">
<rect width="40" height="40" fill="white"/>
</clipPath>
</defs>
</svg>
